<mxfile host="app.diagrams.net" modified="2023-03-01T19:50:12.679Z" agent="5.0 (Windows NT 10.0; Win64; x64) AppleWebKit/537.36 (KHTML, like Gecko) Chrome/110.0.0.0 Safari/537.36" etag="a5UMiWksr6tgKrfQyzqR" version="20.8.23" type="github" pages="2">
  <diagram name="DFD-ngu-canh" id="zBLMDDl8eXM5DutppBpG">
    <mxGraphModel dx="880" dy="484" grid="1" gridSize="10" guides="1" tooltips="1" connect="1" arrows="1" fold="1" page="1" pageScale="1" pageWidth="827" pageHeight="1169" math="0" shadow="0">
      <root>
        <mxCell id="0" />
        <mxCell id="1" parent="0" />
        <mxCell id="HZRK2vIauKCDZ3t6xCsQ-1" value="Cập nhật danh mục đầu sách" style="edgeStyle=orthogonalEdgeStyle;rounded=0;orthogonalLoop=1;jettySize=auto;html=1;entryX=0.5;entryY=0;entryDx=0;entryDy=0;fontSize=15;exitX=1;exitY=0.5;exitDx=0;exitDy=0;" parent="1" source="GjrA2dG64O-cpCAs5phx-1" target="q3qtEbroohCqmMzDlQC2-1" edge="1">
          <mxGeometry relative="1" as="geometry">
            <mxPoint x="410" y="121.5" as="targetPoint" />
          </mxGeometry>
        </mxCell>
        <mxCell id="HZRK2vIauKCDZ3t6xCsQ-2" value="Xử lý yêu cầu từ độc giả" style="edgeStyle=orthogonalEdgeStyle;rounded=0;orthogonalLoop=1;jettySize=auto;html=1;exitX=0.25;exitY=1;exitDx=0;exitDy=0;entryX=0.465;entryY=1.009;entryDx=0;entryDy=0;fontSize=15;entryPerimeter=0;" parent="1" source="HZRK2vIauKCDZ3t6xCsQ-3" target="GjrA2dG64O-cpCAs5phx-1" edge="1">
          <mxGeometry relative="1" as="geometry">
            <mxPoint x="410" y="206.5" as="targetPoint" />
          </mxGeometry>
        </mxCell>
        <mxCell id="HZRK2vIauKCDZ3t6xCsQ-3" value="Thủ thư" style="rounded=0;whiteSpace=wrap;html=1;fontSize=15;" parent="1" vertex="1">
          <mxGeometry x="40" y="40" width="120" height="60" as="geometry" />
        </mxCell>
        <mxCell id="HZRK2vIauKCDZ3t6xCsQ-4" value="Yêu cầu từ độc giả" style="edgeStyle=orthogonalEdgeStyle;rounded=0;orthogonalLoop=1;jettySize=auto;html=1;exitX=0.335;exitY=1.008;exitDx=0;exitDy=0;entryX=0.75;entryY=1;entryDx=0;entryDy=0;fontSize=15;exitPerimeter=0;" parent="1" source="GjrA2dG64O-cpCAs5phx-1" target="HZRK2vIauKCDZ3t6xCsQ-3" edge="1">
          <mxGeometry relative="1" as="geometry">
            <mxPoint x="410" y="164" as="sourcePoint" />
          </mxGeometry>
        </mxCell>
        <mxCell id="HZRK2vIauKCDZ3t6xCsQ-5" value="Phản hồi yêu cầu" style="edgeStyle=orthogonalEdgeStyle;rounded=0;orthogonalLoop=1;jettySize=auto;html=1;exitX=0.583;exitY=-0.015;exitDx=0;exitDy=0;entryX=-0.007;entryY=0.856;entryDx=0;entryDy=0;fontSize=15;exitPerimeter=0;entryPerimeter=0;" parent="1" source="GjrA2dG64O-cpCAs5phx-1" target="HZRK2vIauKCDZ3t6xCsQ-9" edge="1">
          <mxGeometry x="-0.0248" relative="1" as="geometry">
            <mxPoint x="580" y="206.5" as="sourcePoint" />
            <Array as="points">
              <mxPoint x="810" y="194" />
              <mxPoint x="810" y="178" />
            </Array>
            <mxPoint as="offset" />
          </mxGeometry>
        </mxCell>
        <mxCell id="HZRK2vIauKCDZ3t6xCsQ-7" value="Yêu cầu mượn sách" style="edgeStyle=orthogonalEdgeStyle;rounded=0;orthogonalLoop=1;jettySize=auto;html=1;exitX=0;exitY=0.25;exitDx=0;exitDy=0;entryX=1;entryY=0.25;entryDx=0;entryDy=0;fontSize=15;" parent="1" source="HZRK2vIauKCDZ3t6xCsQ-9" edge="1">
          <mxGeometry relative="1" as="geometry">
            <mxPoint x="580" y="121.5" as="targetPoint" />
          </mxGeometry>
        </mxCell>
        <mxCell id="HZRK2vIauKCDZ3t6xCsQ-9" value="Độc giả" style="rounded=0;whiteSpace=wrap;html=1;fontSize=15;" parent="1" vertex="1">
          <mxGeometry x="850" y="100" width="150" height="90" as="geometry" />
        </mxCell>
        <mxCell id="GjrA2dG64O-cpCAs5phx-1" value="&lt;font style=&quot;font-size: 14px;&quot;&gt;Hệ thống quản lý thư viện&lt;/font&gt;" style="shape=process;whiteSpace=wrap;html=1;backgroundOutline=1;rounded=1;direction=south;size=0.17391304347826086;" parent="1" vertex="1">
          <mxGeometry x="450" y="60" width="130" height="230" as="geometry" />
        </mxCell>
        <mxCell id="GjrA2dG64O-cpCAs5phx-2" value="&lt;font style=&quot;font-size: 18px;&quot;&gt;0&lt;/font&gt;" style="text;html=1;strokeColor=none;fillColor=none;align=center;verticalAlign=middle;whiteSpace=wrap;rounded=0;" parent="1" vertex="1">
          <mxGeometry x="485" y="70" width="60" height="30" as="geometry" />
        </mxCell>
        <mxCell id="q3qtEbroohCqmMzDlQC2-1" value="Kho sách" style="rounded=0;whiteSpace=wrap;html=1;fontSize=14;" parent="1" vertex="1">
          <mxGeometry x="435" y="390" width="160" height="80" as="geometry" />
        </mxCell>
      </root>
    </mxGraphModel>
  </diagram>
  <diagram id="9y4T_TO79DYO4xlv8zHQ" name="DFD-level0">
    <mxGraphModel dx="880" dy="484" grid="1" gridSize="10" guides="1" tooltips="1" connect="1" arrows="1" fold="1" page="1" pageScale="1" pageWidth="827" pageHeight="1169" math="0" shadow="0">
      <root>
        <mxCell id="0" />
        <mxCell id="1" parent="0" />
        <mxCell id="rxzsPCiHYdrndFKvIvYj-1" value="Thủ thư" style="rounded=0;whiteSpace=wrap;html=1;fontSize=15;" parent="1" vertex="1">
          <mxGeometry x="60" y="70" width="120" height="60" as="geometry" />
        </mxCell>
        <mxCell id="mvFIrbPf6gO3De-fnWrh-1" value="Yêu cầu từ độc giả" style="edgeStyle=orthogonalEdgeStyle;rounded=0;orthogonalLoop=1;jettySize=auto;html=1;entryX=0.75;entryY=1;entryDx=0;entryDy=0;fontSize=15;exitX=0.5;exitY=1;exitDx=0;exitDy=0;" parent="1" source="uB9fYZ2Pg4FhSdqHnJQ0-1" edge="1">
          <mxGeometry relative="1" as="geometry">
            <mxPoint x="370" y="194" as="sourcePoint" />
            <mxPoint x="160" y="130" as="targetPoint" />
            <Array as="points">
              <mxPoint x="270" y="200" />
              <mxPoint x="270" y="150" />
              <mxPoint x="160" y="150" />
            </Array>
          </mxGeometry>
        </mxCell>
        <mxCell id="iQxi1iZsWcezMBvlNcFl-1" value="Xử lý yêu cầu từ độc giả" style="edgeStyle=orthogonalEdgeStyle;rounded=0;orthogonalLoop=1;jettySize=auto;html=1;fontSize=15;exitX=1;exitY=0.5;exitDx=0;exitDy=0;" parent="1" source="rxzsPCiHYdrndFKvIvYj-1" edge="1">
          <mxGeometry relative="1" as="geometry">
            <mxPoint x="250" y="100" as="sourcePoint" />
            <mxPoint x="440" y="130" as="targetPoint" />
            <Array as="points">
              <mxPoint x="440" y="100" />
              <mxPoint x="440" y="130" />
            </Array>
          </mxGeometry>
        </mxCell>
        <mxCell id="uB9fYZ2Pg4FhSdqHnJQ0-1" value="Đón nhận và xử lý yêu cầu" style="shape=process;whiteSpace=wrap;html=1;backgroundOutline=1;rounded=1;fontSize=14;direction=south;size=0.21428571428571427;" parent="1" vertex="1">
          <mxGeometry x="380" y="130" width="110" height="140" as="geometry" />
        </mxCell>
        <mxCell id="uB9fYZ2Pg4FhSdqHnJQ0-2" value="1.0" style="text;html=1;strokeColor=none;fillColor=none;align=center;verticalAlign=middle;whiteSpace=wrap;rounded=0;fontSize=14;" parent="1" vertex="1">
          <mxGeometry x="405" y="130" width="60" height="30" as="geometry" />
        </mxCell>
        <mxCell id="i3jcMOSUXdrgVXlEhDwF-1" value="&lt;font style=&quot;font-size: 14px;&quot;&gt;Kho sách&lt;/font&gt;" style="rounded=0;whiteSpace=wrap;html=1;fontSize=18;" parent="1" vertex="1">
          <mxGeometry x="640" y="150" width="120" height="60" as="geometry" />
        </mxCell>
        <mxCell id="i3jcMOSUXdrgVXlEhDwF-2" value="" style="endArrow=classic;html=1;rounded=0;fontSize=18;exitX=0.314;exitY=0.009;exitDx=0;exitDy=0;exitPerimeter=0;entryX=0;entryY=0.25;entryDx=0;entryDy=0;startArrow=none;" parent="1" source="i3jcMOSUXdrgVXlEhDwF-4" target="i3jcMOSUXdrgVXlEhDwF-1" edge="1">
          <mxGeometry width="50" height="50" relative="1" as="geometry">
            <mxPoint x="390" y="270" as="sourcePoint" />
            <mxPoint x="440" y="220" as="targetPoint" />
          </mxGeometry>
        </mxCell>
        <mxCell id="i3jcMOSUXdrgVXlEhDwF-3" value="Yêu cầu" style="text;html=1;strokeColor=none;fillColor=none;align=center;verticalAlign=middle;whiteSpace=wrap;rounded=0;fontSize=14;" parent="1" vertex="1">
          <mxGeometry x="520" y="150" width="60" height="20" as="geometry" />
        </mxCell>
        <mxCell id="aWLuqB_MbllDCZYQhLww-1" value="Cập nhật tình trạng sách" style="shape=process;whiteSpace=wrap;html=1;backgroundOutline=1;rounded=1;fontSize=14;direction=south;size=0.2;" parent="1" vertex="1">
          <mxGeometry x="388.75" y="350" width="101.25" height="160" as="geometry" />
        </mxCell>
        <mxCell id="aWLuqB_MbllDCZYQhLww-2" value="" style="endArrow=none;html=1;rounded=0;fontSize=18;exitX=0.25;exitY=0;exitDx=0;exitDy=0;entryX=0.388;entryY=-0.033;entryDx=0;entryDy=0;entryPerimeter=0;" parent="1" source="uB9fYZ2Pg4FhSdqHnJQ0-1" target="i3jcMOSUXdrgVXlEhDwF-4" edge="1">
          <mxGeometry width="50" height="50" relative="1" as="geometry">
            <mxPoint x="489" y="174" as="sourcePoint" />
            <mxPoint x="610" y="175" as="targetPoint" />
          </mxGeometry>
        </mxCell>
        <mxCell id="i3jcMOSUXdrgVXlEhDwF-4" value="mượn sách" style="text;html=1;strokeColor=none;fillColor=none;align=center;verticalAlign=middle;whiteSpace=wrap;rounded=0;fontSize=14;" parent="1" vertex="1">
          <mxGeometry x="510" y="170" width="80" height="30" as="geometry" />
        </mxCell>
        <mxCell id="GhCVnRGVKnpRdpr-4YPE-1" value="Yêu cầu" style="text;html=1;strokeColor=none;fillColor=none;align=center;verticalAlign=middle;whiteSpace=wrap;rounded=0;fontSize=14;" parent="1" vertex="1">
          <mxGeometry x="440" y="290" width="40" height="50" as="geometry" />
        </mxCell>
        <mxCell id="GhCVnRGVKnpRdpr-4YPE-2" value="2.0" style="text;html=1;strokeColor=none;fillColor=none;align=center;verticalAlign=middle;whiteSpace=wrap;rounded=0;fontSize=14;" parent="1" vertex="1">
          <mxGeometry x="405" y="350" width="65" height="40" as="geometry" />
        </mxCell>
        <mxCell id="GhCVnRGVKnpRdpr-4YPE-3" value="Độc giả" style="rounded=0;whiteSpace=wrap;html=1;fontSize=14;" parent="1" vertex="1">
          <mxGeometry x="940" y="270" width="120" height="60" as="geometry" />
        </mxCell>
        <mxCell id="GhCVnRGVKnpRdpr-4YPE-4" value="Xử lý yêu cầu độc giả" style="shape=process;whiteSpace=wrap;html=1;backgroundOutline=1;rounded=1;fontSize=14;direction=south;size=0.22580645161290322;" parent="1" vertex="1">
          <mxGeometry x="610" y="350" width="100" height="160" as="geometry" />
        </mxCell>
        <mxCell id="GhCVnRGVKnpRdpr-4YPE-5" value="3.0" style="text;html=1;strokeColor=none;fillColor=none;align=center;verticalAlign=middle;whiteSpace=wrap;rounded=0;fontSize=14;" parent="1" vertex="1">
          <mxGeometry x="630" y="355" width="60" height="30" as="geometry" />
        </mxCell>
        <mxCell id="GhCVnRGVKnpRdpr-4YPE-7" value="" style="endArrow=classic;startArrow=classic;html=1;rounded=0;fontSize=14;" parent="1" edge="1">
          <mxGeometry width="50" height="50" relative="1" as="geometry">
            <mxPoint x="440" y="350" as="sourcePoint" />
            <mxPoint x="440" y="270" as="targetPoint" />
          </mxGeometry>
        </mxCell>
        <mxCell id="t-B-ep2CcfyKG1HBAIxt-1" value="Yêu cầu mượn sách" style="edgeStyle=orthogonalEdgeStyle;rounded=0;orthogonalLoop=1;jettySize=auto;html=1;exitX=0;exitY=0.25;exitDx=0;exitDy=0;entryX=0.338;entryY=-0.01;entryDx=0;entryDy=0;fontSize=15;entryPerimeter=0;" parent="1" source="GhCVnRGVKnpRdpr-4YPE-3" target="GhCVnRGVKnpRdpr-4YPE-4" edge="1">
          <mxGeometry relative="1" as="geometry">
            <mxPoint x="810" y="290" as="sourcePoint" />
            <mxPoint x="540" y="288.5" as="targetPoint" />
          </mxGeometry>
        </mxCell>
        <mxCell id="fvTna_4CdrRNyIwQ7YG5-2" value="" style="endArrow=classic;html=1;rounded=0;fontSize=14;exitX=0.825;exitY=-0.02;exitDx=0;exitDy=0;entryX=0.5;entryY=1;entryDx=0;entryDy=0;exitPerimeter=0;" parent="1" source="GhCVnRGVKnpRdpr-4YPE-4" target="GhCVnRGVKnpRdpr-4YPE-3" edge="1">
          <mxGeometry width="50" height="50" relative="1" as="geometry">
            <mxPoint x="660" y="410" as="sourcePoint" />
            <mxPoint x="710" y="360" as="targetPoint" />
            <Array as="points">
              <mxPoint x="1000" y="480" />
            </Array>
          </mxGeometry>
        </mxCell>
        <mxCell id="fvTna_4CdrRNyIwQ7YG5-3" value="" style="endArrow=classic;html=1;rounded=0;fontSize=14;exitX=0.381;exitY=0.99;exitDx=0;exitDy=0;exitPerimeter=0;entryX=0.381;entryY=-0.01;entryDx=0;entryDy=0;entryPerimeter=0;" parent="1" source="GhCVnRGVKnpRdpr-4YPE-4" target="aWLuqB_MbllDCZYQhLww-1" edge="1">
          <mxGeometry width="50" height="50" relative="1" as="geometry">
            <mxPoint x="660" y="410" as="sourcePoint" />
            <mxPoint x="710" y="360" as="targetPoint" />
          </mxGeometry>
        </mxCell>
        <mxCell id="fvTna_4CdrRNyIwQ7YG5-4" value="" style="endArrow=classic;html=1;rounded=0;fontSize=14;exitX=0.663;exitY=-0.01;exitDx=0;exitDy=0;exitPerimeter=0;entryX=0.669;entryY=0.98;entryDx=0;entryDy=0;entryPerimeter=0;" parent="1" source="aWLuqB_MbllDCZYQhLww-1" target="GhCVnRGVKnpRdpr-4YPE-4" edge="1">
          <mxGeometry width="50" height="50" relative="1" as="geometry">
            <mxPoint x="660" y="410" as="sourcePoint" />
            <mxPoint x="710" y="360" as="targetPoint" />
          </mxGeometry>
        </mxCell>
        <mxCell id="fvTna_4CdrRNyIwQ7YG5-5" value="Gửi yêu cầu mượn" style="text;html=1;strokeColor=none;fillColor=none;align=center;verticalAlign=middle;whiteSpace=wrap;rounded=0;fontSize=14;" parent="1" vertex="1">
          <mxGeometry x="520" y="370" width="70" height="30" as="geometry" />
        </mxCell>
        <mxCell id="fvTna_4CdrRNyIwQ7YG5-7" value="Kết quả kiểm tra" style="text;html=1;strokeColor=none;fillColor=none;align=center;verticalAlign=middle;whiteSpace=wrap;rounded=0;fontSize=14;" parent="1" vertex="1">
          <mxGeometry x="495" y="430" width="110" height="30" as="geometry" />
        </mxCell>
        <mxCell id="fvTna_4CdrRNyIwQ7YG5-10" value="tình trạng sách" style="text;html=1;strokeColor=none;fillColor=none;align=center;verticalAlign=middle;whiteSpace=wrap;rounded=0;fontSize=14;" parent="1" vertex="1">
          <mxGeometry x="495" y="450" width="110" height="30" as="geometry" />
        </mxCell>
        <mxCell id="fvTna_4CdrRNyIwQ7YG5-12" value="Phản hồi yêu cầu" style="text;html=1;strokeColor=none;fillColor=none;align=center;verticalAlign=middle;whiteSpace=wrap;rounded=0;fontSize=14;" parent="1" vertex="1">
          <mxGeometry x="800" y="450" width="120" height="30" as="geometry" />
        </mxCell>
      </root>
    </mxGraphModel>
  </diagram>
</mxfile>
